<svg xmlns="http://www.w3.org/2000/svg" xmlns:xlink="http://www.w3.org/1999/xlink" width="2048" zoomAndPan="magnify" viewBox="0 0 1536 1535.999932" height="2048" preserveAspectRatio="xMidYMid meet" version="1.0"><path fill="#0a4c21" d="M 1531.648438 798.632812 C 1525.226562 890.683594 1504.601562 1195.460938 1170.246094 1413.640625 C 991.730469 1530.132812 633.378906 1625.476562 298.003906 1364.320312 C -39.195312 1101.742188 -121.617188 574.84375 232.820312 222.679688 C 584.804688 -127.046875 1242.648438 -49.761719 1470.121094 462.292969 C 1542.882812 626.085938 1531.753906 783.316406 1531.648438 798.632812 Z M 1531.648438 798.632812 " fill-opacity="1" fill-rule="evenodd"/><path fill="#8eb83c" d="M 1474.394531 908.320312 C 1457.582031 983.121094 1444.914062 1020.6875 1410.542969 1090.089844 C 1272.285156 1360.335938 1013.320312 1442.164062 1009.347656 1443.714844 C 956.089844 1462.398438 690.433594 1558.925781 394.375 1377.761719 C 201.761719 1259.898438 128.652344 1094.523438 109.210938 1053.925781 C -140.996094 470.5625 413.714844 -118.773438 1023.886719 98.351562 C 1222.226562 168.925781 1560.347656 434.476562 1474.394531 908.320312 Z M 1474.394531 908.320312 " fill-opacity="1" fill-rule="evenodd"/><path fill="#0f6326" d="M 833.382812 80.199219 L 835.226562 83.453125 L 837.117188 83.773438 L 839.003906 84 L 840.894531 84.128906 L 842.785156 84.25 C 843.691406 84.335938 854.121094 85.300781 854.121094 85.300781 C 855.171875 84.992188 854.945312 82.914062 855.996094 82.609375 C 954.234375 96.550781 1013.910156 116.058594 1095.683594 156.769531 C 1101.613281 160.066406 1107.546875 163.367188 1113.476562 166.667969 C 1118.71875 169.707031 1125.152344 172.039062 1167.347656 200.316406 C 1334.007812 316.417969 1400.015625 472.988281 1401.433594 475.847656 C 1639.273438 993.257812 1182.035156 1554.09375 640.691406 1450.09375 C 462.460938 1415.851562 202.75 1282.125 102.414062 968.597656 C -21.761719 536.578125 254.757812 146.652344 669.058594 83.214844 C 674.039062 82.667969 679.015625 82.121094 683.992188 81.574219 C 732.058594 76.21875 766.515625 74.816406 833.382812 80.199219 Z M 833.382812 80.199219 " fill-opacity="1" fill-rule="evenodd"/><path fill="#fbd92f" d="M 321.011719 741.230469 C 328.105469 741.28125 335.199219 741.332031 342.292969 741.382812 C 406.941406 743.65625 497.527344 738.824219 499.898438 744.277344 C 501.796875 748.644531 500.78125 864.328125 500.71875 864.753906 C 499.5625 872.667969 495.136719 869.492188 355.234375 870.261719 C 343.675781 869.667969 343.839844 870.105469 332.457031 870.773438 C 324.011719 869.203125 139.945312 870.449219 134.289062 870.03125 C 128.992188 869.640625 132.835938 866.164062 162.070312 809.734375 C 166.3125 801.542969 132.53125 748.707031 132.300781 743.839844 C 132.0625 738.769531 273.847656 743.722656 321.011719 741.230469 Z M 321.011719 741.230469 " fill-opacity="1" fill-rule="evenodd"/><path fill="#fbd92f" d="M 1194.015625 741.339844 C 1201.097656 741.324219 1208.179688 741.3125 1215.261719 741.300781 C 1249.488281 743.550781 1404.207031 738.898438 1404.261719 743.828125 C 1404.296875 747.289062 1371.3125 802.496094 1374.074219 807.921875 C 1388.59375 836.457031 1388.90625 835.921875 1402.863281 864.453125 C 1405.074219 868.980469 1403.519531 870.066406 1398.300781 870.042969 C 1220.882812 869.1875 1221.003906 868.910156 1205.703125 870.730469 C 1201.765625 870.132812 1184.699219 870.460938 1182.871094 870.496094 C 1044.9375 868.617188 1037.988281 874.519531 1037.160156 862.902344 C 1036.738281 856.988281 1036.191406 748.523438 1037.195312 745.648438 C 1040.089844 737.386719 1152.042969 744.300781 1194.015625 741.335938 Z M 1194.015625 741.339844 " fill-opacity="1" fill-rule="evenodd"/><path fill="#8cb73a" d="M 714.394531 353.621094 C 488.238281 386.636719 364.070312 547.675781 342.292969 741.382812 C 335.199219 741.332031 328.105469 741.28125 321.011719 741.230469 C 321.496094 704.152344 342.328125 637.125 345.070312 628.304688 C 353.515625 637.421875 351.183594 638.839844 352.101562 639.339844 C 361.945312 644.710938 349.707031 626.878906 351.5625 621.046875 C 353.757812 614.132812 356.585938 613.894531 352.875 607.5625 C 362.644531 585.496094 362.40625 585.679688 373.617188 564.011719 C 486.921875 357.671875 688.109375 317.074219 812.613281 331.316406 C 1047.570312 358.199219 1140.742188 525.882812 1162.859375 563.933594 C 1159.71875 570.734375 1162.480469 570.589844 1165.792969 577.601562 C 1167.09375 580.347656 1167.652344 579.105469 1170.589844 579.03125 C 1176.164062 591.289062 1211.402344 668.804688 1215.261719 741.300781 C 1208.179688 741.3125 1201.097656 741.328125 1194.015625 741.339844 C 1190.339844 711.75 1180.761719 550.917969 1017.976562 430.929688 C 890.257812 336.785156 739.34375 351.230469 714.394531 353.621094 Z M 714.394531 353.621094 " fill-opacity="1" fill-rule="evenodd"/><path fill="#fbd92f" d="M 769.101562 1070.945312 C 763.28125 1067.023438 762.269531 1065.75 757.246094 1070.726562 L 759.289062 1072.378906 C 759 1076.328125 755.703125 1121.09375 761.523438 1121.820312 C 794.25 1125.898438 804.78125 1113.53125 807.222656 1110.664062 C 813.371094 1103.445312 816.578125 1108.351562 816.65625 1117.964844 C 816.894531 1147.121094 818.863281 1177.703125 808.085938 1161.878906 C 805.300781 1157.785156 801.738281 1153.738281 765.308594 1154.558594 C 755.214844 1154.789062 758.824219 1169.945312 758.769531 1180.308594 C 758.632812 1205.773438 759.652344 1206.175781 770.226562 1218.707031 C 770.625 1219.175781 774.878906 1228.148438 767.226562 1228.1875 C 701.433594 1228.503906 701.386719 1226.285156 701.273438 1225.605469 C 699.269531 1213.707031 712.390625 1215.359375 713.5 1191.632812 C 713.984375 1181.226562 718.523438 1084.027344 711.816406 1061.4375 C 708.863281 1051.496094 691.273438 1038.984375 706.75 1038.933594 C 717.175781 1038.894531 822.621094 1038.535156 837.101562 1038.78125 C 837.507812 1038.785156 840.664062 1038.839844 840.691406 1042.398438 C 841.011719 1081.957031 841.96875 1090.265625 833.328125 1089.695312 C 832.132812 1089.613281 833.652344 1088.011719 822.558594 1079.324219 C 804.585938 1069.875 800.144531 1071.628906 769.101562 1070.945312 Z M 769.101562 1070.945312 " fill-opacity="1" fill-rule="evenodd"/><path fill="#faf7e5" d="M 599.042969 159.230469 C 632.308594 161.496094 647.511719 194.5625 623.925781 218.816406 C 618.265625 224.636719 646.683594 216.335938 657.214844 245.160156 C 669.050781 277.542969 636.597656 291.535156 632.628906 293.242188 C 627.550781 295.433594 600.308594 307.175781 566.769531 314.199219 C 555.878906 316.476562 567.707031 301.808594 567.003906 297.902344 C 566.902344 297.355469 539.175781 199.589844 533.101562 195.636719 C 530.175781 193.730469 519.425781 192.953125 521.417969 186.363281 C 522.875 181.542969 524.625 183.351562 580.019531 163.40625 C 588.773438 160.253906 588.71875 161.007812 599.042969 159.230469 Z M 599.042969 159.230469 " fill-opacity="1" fill-rule="evenodd"/><path fill="#87b22c" d="M 1009.078125 706.214844 C 1010.929688 706.84375 1010.617188 707.191406 1010.667969 709.578125 L 1008.53125 711.203125 C 893.898438 820.90625 907.671875 872.765625 808.351562 971.96875 C 800.511719 979.800781 813.023438 939.125 813.871094 936.371094 C 851.578125 840.125 894.082031 807.320312 893.953125 804.292969 C 893.738281 799.160156 889.289062 802.394531 847.246094 848.316406 C 839.96875 857.402344 837.621094 857.707031 818.820312 887.820312 C 815.0625 879.824219 814.796875 879.5 814.179688 879.898438 C 813.515625 880.328125 815.054688 881.164062 810.046875 888.898438 C 808.222656 891.71875 809.234375 891.808594 807.933594 894.890625 C 806.8125 897.554688 806.292969 895.425781 804.90625 893.082031 C 812.648438 873.382812 849.050781 766.050781 995.589844 710.921875 C 1000.085938 709.351562 1004.582031 707.785156 1009.078125 706.214844 Z M 1009.078125 706.214844 " fill-opacity="1" fill-rule="evenodd"/><path fill="#faf7e5" d="M 387.328125 265.015625 C 392.738281 264.832031 400.949219 262.300781 411.625 271.851562 C 439.976562 297.214844 418.335938 323.332031 423.539062 325.492188 C 472.460938 345.804688 472.242188 346.890625 478.078125 346.664062 C 501.363281 345.753906 488.390625 357.492188 487.40625 358.144531 C 468.5 370.722656 468.839844 380.566406 448.253906 370.796875 C 407.28125 351.34375 404.539062 347.371094 397.257812 354.988281 C 395.121094 357.226562 392.96875 360.128906 419.9375 386.300781 C 427.496094 393.640625 436.867188 383.300781 439.453125 392.585938 C 439.945312 394.359375 402.628906 430.644531 398.445312 428.96875 C 391.183594 426.054688 398.925781 413.578125 398.550781 411.335938 C 397.808594 406.898438 333.929688 334.546875 330.078125 330.773438 C 324.84375 325.648438 299.742188 331.203125 318.058594 315.566406 C 372.535156 269.054688 380.710938 266.824219 387.328125 265.015625 Z M 387.328125 265.015625 " fill-opacity="1" fill-rule="evenodd"/><path fill="#88b22c" d="M 713.785156 919.796875 C 710.101562 924.695312 709.539062 924.625 709.820312 925.070312 C 710.417969 926.035156 712.242188 925.910156 712.640625 926.972656 C 713.125 928.269531 714.089844 930.851562 710.445312 944.140625 C 708.773438 950.25 714.332031 949.917969 712.179688 955.6875 C 615.789062 849.015625 628.894531 803.269531 528.421875 712.371094 C 528.03125 712.015625 520.402344 705.113281 525.417969 706.484375 C 596.5 725.867188 688.265625 794.800781 720.953125 874.644531 C 734.507812 907.753906 752.128906 971.871094 732.375 921.910156 C 701.246094 843.199219 605.039062 768.402344 652.105469 817.398438 C 677.324219 843.652344 709.65625 911.171875 713.785156 919.796875 Z M 713.785156 919.796875 " fill-opacity="1" fill-rule="evenodd"/><path fill="#8db73a" d="M 1182.871094 870.496094 C 1184.699219 870.460938 1201.765625 870.132812 1205.703125 870.730469 C 1194.425781 905.042969 1194.605469 905.042969 1193.582031 908.007812 C 1133.46875 1082.242188 981.113281 1183.828125 846.550781 1209.777344 C 845.109375 1210.054688 843.046875 1209.78125 843.550781 1191.675781 C 843.894531 1179.175781 917.019531 1191.296875 1038.917969 1094.871094 C 1135.070312 1019.238281 1177.433594 902.382812 1182.871094 870.496094 Z M 1182.871094 870.496094 " fill-opacity="1" fill-rule="evenodd"/><path fill="#faf7e6" d="M 215.484375 527.640625 C 276.320312 530.976562 276.28125 530.652344 281.5625 530.953125 C 306.367188 532.367188 307.976562 533.761719 313.871094 528.585938 C 319.332031 523.792969 323.46875 530.503906 322.234375 533.828125 C 309.175781 568.949219 303.257812 586.902344 295.414062 578.882812 C 292.296875 575.699219 298.640625 565.921875 289.148438 565.101562 C 272.160156 563.636719 271.535156 565.207031 270.996094 566.558594 C 255.652344 605.074219 258.433594 607.003906 261.292969 608.984375 C 272.125 616.488281 273.546875 620.578125 283.871094 612.050781 C 301.539062 597.453125 279.402344 646.78125 277.964844 647.644531 C 269.175781 652.933594 270.414062 641.679688 266.453125 638.0625 C 251.566406 624.476562 159.871094 559.765625 161.253906 555.035156 C 169.964844 525.234375 173.144531 525.25 175.792969 525.265625 C 178.976562 525.28125 188.550781 525.324219 215.484375 527.640625 Z M 215.484375 527.640625 " fill-opacity="1" fill-rule="evenodd"/><path fill="#faf7e6" d="M 1046.042969 280.921875 C 1044.117188 255.023438 1045.113281 236.945312 1040.394531 248.1875 C 1033.464844 264.6875 1003.707031 312.515625 1006.90625 320.691406 C 1013.652344 337.914062 1004.613281 335.976562 1003.5625 335.386719 C 973.753906 318.605469 973 319.238281 972.039062 316.457031 C 969.449219 308.941406 984.554688 307.933594 984.730469 307.859375 C 992.707031 304.472656 1028.035156 232.695312 1031.367188 225.929688 C 1040.125 208.132812 1030.71875 207.632812 1031.25 201.496094 C 1032.242188 189.976562 1043.878906 199.433594 1069.660156 214.574219 C 1073.589844 216.882812 1071.765625 217.949219 1072.273438 239.34375 C 1072.417969 245.378906 1073.648438 296.796875 1075.683594 314.726562 C 1076.082031 318.257812 1081.429688 308.511719 1081.785156 307.871094 C 1108.144531 259.84375 1116.539062 259.371094 1108.109375 244.578125 C 1107.640625 243.757812 1103.195312 229.441406 1119.183594 240.445312 C 1128 246.519531 1155.019531 261.117188 1137.660156 264.515625 C 1127.035156 266.59375 1127.878906 269.242188 1077.992188 345.722656 C 1067.207031 362.257812 1068.003906 373.492188 1051.097656 363.339844 C 1046.304688 360.460938 1049.550781 357.65625 1046.042969 280.921875 Z M 1046.042969 280.921875 " fill-opacity="1" fill-rule="evenodd"/><path fill="#faf7e6" d="M 254.09375 426.398438 C 257.457031 460.230469 329.277344 511.355469 350.804688 460.113281 C 353.953125 452.613281 347.511719 450.511719 336.980469 442.660156 C 328.3125 436.199219 327.53125 432.507812 318.816406 438.796875 C 315.75 441.007812 298.597656 442.148438 308.808594 428.914062 C 332.277344 398.488281 333.554688 398.320312 336.585938 399.460938 C 341.121094 401.171875 339.542969 410.0625 342.339844 412.941406 C 358.273438 429.34375 381.160156 437.472656 376.113281 450.980469 C 326.933594 582.65625 163.695312 456.625 257.640625 385.65625 C 265.273438 379.890625 267.355469 381.210938 269.058594 371.78125 C 270.304688 364.90625 276.777344 368.351562 277.402344 368.6875 C 308.628906 385.316406 312.449219 391.09375 306.035156 395.984375 C 298.566406 401.683594 261.246094 380.027344 254.09375 426.394531 Z M 254.09375 426.398438 " fill-opacity="1" fill-rule="evenodd"/><path fill="#faf7e6" d="M 793.675781 1370.070312 C 771.605469 1371.820312 763.984375 1367.261719 761.050781 1384.28125 C 758.097656 1401.410156 775.3125 1401.679688 767.257812 1409.015625 C 766.589844 1409.625 725.484375 1411.503906 723.613281 1407.128906 C 719.417969 1397.320312 730.273438 1400.457031 735.601562 1384.578125 C 755.148438 1326.289062 764.136719 1281.921875 770.910156 1281.601562 C 792.503906 1280.582031 799.058594 1278.621094 801.140625 1284.273438 C 840.855469 1391.996094 844.652344 1390.664062 848.140625 1392.617188 C 866.132812 1402.691406 836.753906 1405.546875 835.296875 1405.6875 C 801.109375 1409.011719 800.167969 1409.933594 798.957031 1407.285156 C 793.613281 1395.636719 812.308594 1398.347656 807.957031 1384.621094 C 804.445312 1373.53125 805.167969 1370.855469 793.671875 1370.070312 Z M 793.675781 1370.070312 " fill-opacity="1" fill-rule="evenodd"/><path fill="#8cb73a" d="M 386.453125 956.894531 C 504.027344 1172.398438 675.550781 1171.539062 675.710938 1187.867188 C 675.726562 1189.285156 675.890625 1205.84375 672.695312 1205.359375 C 664.347656 1204.089844 590.503906 1185.949219 522.054688 1139.945312 C 426.859375 1075.964844 385.015625 996.789062 373.472656 976.660156 C 375.917969 971.6875 374.21875 971.722656 371.667969 967.019531 C 371.363281 966.460938 374.242188 957.347656 377.378906 963.121094 C 378.902344 965.933594 379.609375 967.546875 381.34375 964.742188 C 384.957031 958.902344 385.953125 957.886719 386.453125 956.894531 Z M 386.453125 956.894531 " fill-opacity="1" fill-rule="evenodd"/><path fill="#faf7e5" d="M 800.441406 254.445312 C 801.09375 246.722656 798.511719 228.425781 808.832031 229.5625 C 813.113281 230.035156 814.40625 233.066406 814.628906 233.585938 C 834.867188 280.957031 879.390625 267.519531 871.585938 244.84375 C 866.371094 229.714844 861.792969 233.898438 843.304688 223.367188 C 784.273438 189.742188 822.25 107.761719 895.765625 154.175781 C 897.730469 155.414062 902.324219 151.832031 907.109375 154.179688 C 911.398438 156.277344 905.097656 218.246094 889.332031 181.078125 C 879.660156 158.277344 853.003906 157.5625 845.464844 168.164062 C 830.957031 188.570312 864.683594 200.667969 874.539062 205.96875 C 915.496094 227.996094 899.242188 267.484375 887.550781 276.457031 C 850.414062 304.945312 816.6875 269.410156 812.433594 271.101562 C 799.246094 276.34375 800.261719 268.519531 800.441406 254.445312 Z M 800.441406 254.445312 " fill-opacity="1" fill-rule="evenodd"/><path fill="#faf7e5" d="M 1156.449219 418.109375 C 1176.167969 414.292969 1177.261719 416.925781 1177.921875 418.511719 C 1179.929688 423.328125 1153.453125 450.097656 1149.441406 446.503906 C 1144.109375 441.726562 1144.738281 441.238281 1085.261719 384.207031 C 1084.582031 383.554688 1076.511719 373.527344 1094.171875 376.503906 C 1104.402344 378.226562 1115.113281 363.898438 1138.152344 338.136719 C 1169.238281 303.375 1174.402344 303.015625 1169.414062 286.644531 C 1164.957031 272.011719 1184.355469 288.882812 1185.335938 289.734375 C 1190.210938 293.976562 1244 340.757812 1244.117188 345.132812 C 1244.136719 345.769531 1226.460938 375.84375 1219.15625 369.292969 C 1210.324219 361.378906 1226.261719 355.21875 1212.921875 339.65625 C 1196.585938 320.597656 1193.988281 323.15625 1192.542969 324.582031 C 1169.097656 347.714844 1166.921875 352.015625 1172.066406 355.847656 C 1195.089844 373.011719 1199.886719 372.957031 1195.949219 377.136719 C 1177.898438 396.277344 1172.027344 403.988281 1169.355469 392.457031 C 1163.273438 366.210938 1156.195312 363.355469 1147.785156 372.382812 C 1130.46875 390.96875 1122.761719 393.863281 1134.144531 405.25 C 1142.984375 414.089844 1144.914062 417.121094 1156.449219 418.109375 Z M 1156.449219 418.109375 " fill-opacity="1" fill-rule="evenodd"/><path fill="#faf7e5" d="M 709.425781 205.328125 C 709.488281 208.945312 702.867188 271.085938 742.472656 259.445312 C 762.039062 253.691406 761.140625 236.652344 755.4375 167.582031 C 754.4375 155.445312 755.34375 154.214844 745.0625 147.773438 C 740.699219 145.042969 741.378906 138.128906 744.621094 137.632812 C 789.273438 130.773438 789.554688 139.730469 788.464844 143.09375 C 785.605469 151.902344 777.945312 147.078125 777.398438 156.261719 C 774.128906 211.085938 801.640625 280.394531 729.410156 279.804688 C 650.070312 279.160156 696.683594 169.875 672.210938 153.0625 C 671.371094 152.484375 654.796875 141.101562 674.585938 140.554688 C 697.824219 139.914062 722.316406 136.207031 716.449219 146.941406 C 715.554688 148.582031 709.148438 150.238281 708.882812 156.21875 C 708.710938 160.144531 709.25 160.085938 709.425781 205.328125 Z M 709.425781 205.328125 " fill-opacity="1" fill-rule="evenodd"/><path fill="#faf7e5" d="M 1321.585938 554.894531 C 1322.019531 572.378906 1325.207031 594.664062 1312.527344 610.910156 C 1308.945312 615.496094 1237.980469 655.355469 1230.386719 562.425781 C 1229.859375 555.976562 1215.867188 549.363281 1226.171875 545.042969 C 1242.996094 537.984375 1270.003906 522.371094 1265.183594 539.605469 C 1264.601562 541.683594 1241.28125 558.214844 1253.566406 586.660156 C 1258.285156 597.582031 1294.070312 616.195312 1291.554688 564.367188 C 1290.792969 548.65625 1287.683594 525.121094 1311.210938 511.148438 C 1338.875 494.71875 1374.683594 519.773438 1374.546875 551.09375 C 1374.496094 562.003906 1370.609375 563.648438 1378.703125 570.726562 C 1380.089844 571.9375 1382.472656 577.9375 1379.417969 579.46875 C 1356.777344 590.820312 1346.828125 597.09375 1343.285156 587.082031 C 1341.792969 582.871094 1369.738281 554.179688 1350.277344 534.898438 C 1347.355469 532 1340.890625 528.9375 1334.214844 530.925781 C 1320.925781 534.882812 1321.804688 553.277344 1321.585938 554.894531 Z M 1321.585938 554.894531 " fill-opacity="1" fill-rule="evenodd"/><path fill="#faf7e5" d="M 1229.332031 445.375 C 1228.96875 440.578125 1226.152344 403.519531 1262.417969 395.148438 C 1303.972656 385.558594 1315.242188 443.765625 1317.230469 444.957031 C 1329.164062 452.125 1323.515625 456.011719 1315.671875 461.21875 C 1308.59375 465.917969 1277.332031 491.84375 1292.953125 454.933594 C 1301.671875 434.324219 1289.160156 415.054688 1275.402344 416.265625 C 1232.25 420.0625 1299.667969 481.421875 1249.558594 514.109375 C 1196.558594 548.683594 1176.53125 470.089844 1175.515625 469.605469 C 1153.996094 459.339844 1173.246094 453.53125 1196.359375 440.070312 C 1201.929688 436.824219 1205.550781 446.753906 1202.988281 450.480469 C 1185.410156 476.046875 1206.574219 499.140625 1218.820312 499.617188 C 1249.671875 500.816406 1231.265625 454.394531 1229.332031 445.375 Z M 1229.332031 445.375 " fill-opacity="1" fill-rule="evenodd"/><path fill="#faf7e5" d="M 1033.621094 1330.636719 C 1034.976562 1330.441406 1054.945312 1330.769531 1058.6875 1314.566406 C 1066.535156 1280.601562 1006.207031 1312.257812 982.894531 1284.015625 C 944.019531 1236.914062 1018.050781 1208.488281 1031.382812 1213.15625 C 1034.097656 1214.109375 1045.425781 1233.53125 1045.964844 1235.382812 C 1046.957031 1238.792969 1038.996094 1242.628906 1035.425781 1241 C 997.507812 1223.703125 991.328125 1258.476562 1001.996094 1266.546875 C 1011.480469 1273.714844 1012.609375 1269.222656 1035.464844 1266.660156 C 1084.597656 1261.148438 1096.113281 1310.6875 1074.671875 1332.867188 C 1056.011719 1352.175781 1033.027344 1350.296875 1028.070312 1351.042969 C 1026.238281 1351.320312 1020.933594 1359.5625 1016.957031 1357.273438 C 1013.5625 1355.320312 997.8125 1329.140625 997.546875 1327.75 C 994.945312 1314.082031 1013.820312 1328.539062 1033.621094 1330.636719 Z M 1033.621094 1330.636719 " fill-opacity="1" fill-rule="evenodd"/><path fill="#faf7e5" d="M 914.535156 1337.894531 C 911.203125 1337.359375 883.457031 1332.894531 875.703125 1321.394531 C 864.316406 1304.503906 866.949219 1286.222656 869.996094 1280.851562 C 886.386719 1251.921875 923.207031 1263.480469 931.507812 1257.675781 C 942.191406 1250.207031 947.300781 1288.160156 947.269531 1288.257812 C 944.601562 1296.855469 933.988281 1287.25 933.144531 1286.484375 C 915.132812 1270.175781 888.753906 1280.632812 892.972656 1297.675781 C 896.578125 1312.246094 929.214844 1312.058594 929.785156 1312.15625 C 989.277344 1322.355469 983.222656 1399.367188 905.183594 1389.597656 C 901.921875 1389.1875 900.414062 1393.421875 899.609375 1393.976562 C 889.492188 1400.960938 884.238281 1378.976562 880.042969 1365.640625 C 876.40625 1354.085938 886.3125 1354.894531 889.183594 1358.589844 C 901.25 1374.132812 928.84375 1374.019531 938.820312 1363.292969 C 955.621094 1345.230469 917.300781 1338.386719 914.535156 1337.894531 Z M 914.535156 1337.894531 " fill-opacity="1" fill-rule="evenodd"/><path fill="#8fb93d" d="M 1254.914062 1065.0625 C 1255.625 1065.007812 1255.769531 1066.570312 1256.480469 1066.515625 C 1256.917969 1066.480469 1264.5 1057.3125 1266.167969 1055.742188 C 1284.886719 1038.101562 1311.816406 1039.164062 1313.0625 1039.527344 C 1319.839844 1041.492188 1298.808594 1074.679688 1269.742188 1077.492188 C 1253.265625 1079.089844 1251.285156 1076.332031 1240.8125 1089.089844 C 1220.308594 1116.984375 1218.070312 1115.179688 1216.847656 1117.917969 C 1213.410156 1125.613281 1224.042969 1116.574219 1224.523438 1116.167969 C 1248.976562 1095.375 1288.71875 1095.828125 1280.429688 1106.089844 C 1253.546875 1139.375 1232.929688 1131.527344 1213.132812 1131.109375 C 1200.558594 1130.847656 1186.679688 1159.882812 1177.164062 1160.964844 C 1155.328125 1163.449219 1187.808594 1143.453125 1201.050781 1123.167969 C 1210.589844 1108.546875 1177.441406 1097.746094 1202.71875 1042.820312 C 1208.152344 1031.011719 1216.03125 1061.492188 1216.335938 1063.261719 C 1220.980469 1090.253906 1214.167969 1105.695312 1214.34375 1106.882812 C 1214.75 1109.683594 1217.417969 1108.082031 1236.964844 1079.707031 C 1248.996094 1062.246094 1211.78125 1043.957031 1227.074219 999.152344 C 1233.886719 979.191406 1241.269531 1000.449219 1242.628906 1003.089844 C 1261.195312 1039.171875 1240.4375 1052.492188 1254.914062 1065.0625 Z M 1254.914062 1065.0625 " fill-opacity="1" fill-rule="evenodd"/><path fill="#faf7e5" d="M 469.734375 1305.035156 C 471.71875 1243.800781 524.546875 1201.648438 576.707031 1247.949219 C 580.929688 1251.695312 584.679688 1248.804688 587.699219 1249.046875 C 600.425781 1250.078125 578.347656 1293.699219 576.394531 1293.910156 C 566.945312 1294.929688 566.898438 1291.589844 567.976562 1282.289062 C 570.664062 1259.144531 548.195312 1245.371094 530.949219 1253.875 C 504.46875 1266.933594 467.175781 1359.902344 550.117188 1334.273438 C 556.414062 1332.328125 556.914062 1347.210938 556.957031 1348.46875 C 557.417969 1362.09375 522.828125 1360.933594 508.265625 1356.28125 C 467.324219 1343.199219 469.773438 1305.304688 469.734375 1305.035156 Z M 469.734375 1305.035156 " fill-opacity="1" fill-rule="evenodd"/><path fill="#fbd82e" d="M 791.632812 780.746094 C 787.898438 779.816406 785.730469 778.699219 789.371094 747.546875 C 790.507812 737.835938 796.65625 685.273438 869.230469 654.996094 C 874.671875 652.726562 872.175781 691.695312 869.441406 704.210938 C 855.457031 768.238281 801.757812 777.722656 791.632812 780.746094 Z M 791.632812 780.746094 " fill-opacity="1" fill-rule="evenodd"/><path fill="#fbd82e" d="M 713.667969 684.128906 C 715.953125 686.355469 732.824219 699.28125 741.261719 722.882812 C 747.957031 741.597656 748.382812 773.957031 747.640625 779.300781 C 733.042969 784.167969 658.328125 753.453125 664.910156 664.464844 C 665.359375 658.40625 665.386719 653.691406 673.125 658.101562 C 694.160156 670.089844 694.695312 668.941406 713.667969 684.128906 Z M 713.667969 684.128906 " fill-opacity="1" fill-rule="evenodd"/><path fill="#fbd82f" d="M 665.96875 585.058594 C 664.589844 563.992188 664.433594 564.132812 664.480469 562.308594 C 664.675781 554.636719 692.382812 568.460938 700.535156 574.554688 C 763.398438 621.546875 752.308594 664.082031 751.683594 673.894531 C 751.480469 677.0625 748.363281 687.628906 712.863281 665.578125 C 669.003906 638.339844 667.101562 592.566406 665.96875 585.058594 Z M 665.96875 585.058594 " fill-opacity="1" fill-rule="evenodd"/><path fill="#fbd82e" d="M 784.1875 554.886719 C 786.785156 539.738281 786.375 520.492188 809.160156 496.671875 C 812.070312 493.625 828.109375 476.855469 852.574219 466.894531 C 865.316406 461.707031 872.683594 458.117188 871.375 471.773438 C 868.234375 504.511719 862.421875 551.773438 797.5 577.714844 C 780.253906 584.605469 782.746094 573.207031 784.1875 554.886719 Z M 784.1875 554.886719 " fill-opacity="1" fill-rule="evenodd"/><path fill="#fbd82e" d="M 737.648438 511.023438 C 748.296875 530.648438 747.789062 530.792969 751.726562 551.148438 C 752.355469 560.609375 756.574219 582.753906 746.445312 579.382812 C 654.019531 548.625 662.621094 462.703125 667.070312 462.714844 C 680.542969 462.753906 704.382812 478.429688 707.320312 480.363281 C 726.660156 493.082031 730.445312 500.9375 737.648438 511.023438 Z M 737.648438 511.023438 " fill-opacity="1" fill-rule="evenodd"/><path fill="#fad82e" d="M 869.972656 581.417969 C 865.695312 609.117188 860.375 649.492188 806.976562 674.152344 C 786.03125 683.828125 785.457031 675.714844 785.332031 673.988281 C 784.667969 664.613281 780.671875 608.167969 841.324219 570.714844 C 847.523438 566.886719 871.621094 554.992188 871.824219 562.300781 C 871.867188 563.835938 871.6875 563.71875 869.972656 581.417969 Z M 869.972656 581.417969 " fill-opacity="1" fill-rule="evenodd"/><path fill="#fad82f" d="M 772.410156 385.128906 C 808.371094 443.144531 801.984375 466.207031 781.855469 503.570312 L 775.246094 513.613281 C 770.238281 522.847656 770.019531 522.863281 769.132812 522.929688 C 765.863281 523.164062 766.664062 521.585938 761.378906 513.421875 C 747.0625 490.089844 718.808594 451.519531 764.074219 385.304688 C 767.621094 380.113281 769.324219 381.207031 772.410156 385.128906 Z M 772.410156 385.128906 " fill-opacity="1" fill-rule="evenodd"/><path fill="#faf7e6" d="M 655.734375 1381.664062 C 683.015625 1379.359375 675.96875 1362.601562 687.8125 1362.917969 C 701.972656 1363.296875 694.675781 1370.410156 690.945312 1384.203125 C 690.5 1385.851562 685.539062 1404.1875 682.152344 1403.652344 C 674.820312 1402.496094 596.4375 1390.117188 591.398438 1384.449219 C 582.722656 1374.6875 604.550781 1381.179688 608.996094 1363.730469 C 610.714844 1356.984375 628.65625 1286.550781 627.171875 1278.617188 C 626.652344 1275.851562 607.300781 1258.160156 629.371094 1262.984375 C 657.933594 1269.226562 677.75 1270.125 660.023438 1281.183594 C 654.964844 1284.339844 632.84375 1374.859375 637.195312 1378.238281 C 639.839844 1380.289062 640.070312 1379.410156 655.734375 1381.664062 Z M 655.734375 1381.664062 " fill-opacity="1" fill-rule="evenodd"/><path fill="#faf7e6" d="M 950.136719 173.515625 C 949.683594 172.898438 945.507812 167.246094 948.871094 164.058594 C 952.359375 160.757812 997.488281 178.433594 997.8125 178.808594 C 1004.394531 186.4375 989.472656 183.921875 982.308594 197.628906 C 981.355469 199.453125 952.976562 281.796875 951.261719 288.601562 C 948.640625 298.992188 956.859375 301.59375 956.523438 307.382812 C 956.296875 311.296875 952.996094 316.296875 908.8125 296.21875 C 904.019531 294.042969 907.304688 286.851562 910.648438 286.082031 C 921.796875 283.511719 921.210938 281.253906 929.078125 258.042969 C 954.039062 184.398438 957.570312 182.625 950.136719 173.515625 Z M 950.136719 173.515625 " fill-opacity="1" fill-rule="evenodd"/><path fill="#faf7e5" d="M 449.71875 232.597656 C 424.925781 226.203125 464.554688 213.160156 477.679688 204.621094 C 485.121094 199.785156 489.796875 196.460938 489.804688 205.332031 C 489.8125 212.878906 479.347656 212.734375 487.265625 228.15625 C 490.289062 234.046875 514.410156 281.035156 526.195312 301.199219 C 537.527344 320.585938 550.289062 312.738281 547.738281 322.363281 C 547.59375 322.898438 496.292969 355.59375 502.878906 337.667969 C 507.917969 323.953125 504.039062 323.496094 482.652344 284.273438 C 461.796875 246.019531 459.238281 235.238281 449.71875 232.597656 Z M 449.71875 232.597656 " fill-opacity="1" fill-rule="evenodd"/><path fill="#90ba3e" d="M 264.859375 1030.859375 C 259.25 1026.0625 235.6875 1010.6875 236.636719 968.707031 C 237.523438 929.515625 276.433594 996.058594 271.21875 1023.425781 C 268.664062 1036.847656 274.007812 1035.542969 280.085938 1047.847656 C 291.652344 1071.257812 284.328125 1041.367188 284.199219 1034.800781 C 284.128906 1031.144531 283.726562 1010.378906 298.820312 991.527344 C 305.425781 983.277344 317.230469 1015.300781 309.027344 1038.285156 C 303.738281 1053.105469 291.71875 1068.664062 297.609375 1077.808594 C 300.757812 1082.703125 317.015625 1104.570312 319.484375 1108.300781 C 320.894531 1112.144531 319.652344 1112.222656 320.863281 1116.074219 L 319.359375 1117.988281 C 302.441406 1102.253906 289.75 1078.472656 283.546875 1078.042969 C 260.511719 1076.4375 258.894531 1080.027344 240.574219 1066.246094 C 217.832031 1049.140625 221.414062 1042.027344 222.566406 1039.738281 C 230.515625 1052.449219 241.644531 1061.757812 243.585938 1063.378906 C 256.808594 1074.441406 265.730469 1065.941406 270.234375 1068.992188 C 281.527344 1076.632812 282.703125 1068.390625 283.28125 1066.882812 C 282.535156 1063.730469 280.292969 1064.84375 264.859375 1030.859375 Z M 264.859375 1030.859375 " fill-opacity="1" fill-rule="evenodd"/><path fill="#fbd82e" d="M 771.253906 552.769531 C 771.597656 554.386719 773.273438 554.214844 773.484375 585.125 C 776.070312 960.757812 777.902344 960.585938 777.824219 993.234375 C 777.820312 994.785156 777.785156 1010.296875 761.15625 1003.109375 C 769.890625 998.96875 777.105469 1002.578125 773.589844 997.214844 C 773.421875 996.960938 770.671875 996.941406 770.691406 993.222656 C 770.835938 962.746094 767.25 962.859375 770.179688 932.695312 C 770.242188 932.046875 770.425781 794.140625 770.203125 793.347656 C 769.230469 789.851562 766.8125 791.441406 766.554688 791.296875 C 766.394531 789.820312 766.460938 789.828125 766.472656 717.660156 C 766.472656 711.617188 766.09375 711.90625 764.550781 706.050781 L 764.4375 704.160156 L 764.363281 702.269531 L 761.230469 700.371094 C 762.308594 656.703125 762.234375 628.597656 762.375 590.785156 C 762.5 557.117188 760.472656 551.1875 771.253906 552.769531 Z M 771.253906 552.769531 " fill-opacity="1" fill-rule="evenodd"/><path fill="#8fb93c" d="M 319.484375 1108.300781 C 322.105469 1101.289062 308.050781 1078.164062 327.601562 1042.746094 C 333.269531 1032.476562 347.753906 1068.292969 340.664062 1091.664062 C 334.976562 1110.433594 330.230469 1116.027344 337.234375 1126.761719 C 365.570312 1157.8125 368.660156 1160.394531 364.644531 1160.835938 C 342.636719 1163.269531 344.132812 1129.480469 317.496094 1130.765625 C 312.214844 1131.019531 285.6875 1139.464844 260.996094 1112.125 C 254.929688 1105.410156 251.925781 1101.117188 260.855469 1099.820312 C 290.289062 1095.539062 312.335938 1116.488281 315.722656 1119.707031 C 318.132812 1121.996094 319.273438 1121.136719 319.359375 1117.988281 L 320.863281 1116.074219 C 319.652344 1112.222656 320.894531 1112.144531 319.484375 1108.300781 Z M 319.484375 1108.300781 " fill-opacity="1" fill-rule="evenodd"/><path fill="#fbd82e" d="M 761.230469 700.371094 L 765.238281 697.511719 L 768.136719 702.15625 L 772.941406 707.925781 C 774.480469 713.785156 769.492188 719.828125 769.492188 725.867188 C 769.480469 798.039062 769.054688 787.191406 769.21875 788.667969 C 770.847656 787.8125 770.230469 788.476562 771.207031 791.96875 C 771.425781 792.765625 771.558594 932.046875 771.558594 932.695312 C 771.503906 961.605469 776.636719 961.730469 772.484375 992.582031 C 771.988281 996.265625 774.191406 996.960938 774.359375 997.214844 C 777.875 1002.578125 769.824219 1003.777344 761.15625 1003.109375 C 758.242188 997.734375 757.921875 997.527344 759.25 879.882812 C 759.910156 820.046875 760.570312 760.207031 761.230469 700.371094 Z M 761.230469 700.371094 " fill-opacity="1" fill-rule="evenodd"/><path fill="#0f3e1b" d="M 1215.800781 804.277344 C 1213.636719 855.875 1156.898438 841.5625 1166.796875 796.929688 C 1171.699219 774.820312 1210.597656 763.46875 1215.800781 804.277344 Z M 1215.800781 804.277344 " fill-opacity="1" fill-rule="evenodd"/><path fill="#8bb73c" d="M 332.457031 870.773438 C 343.839844 870.105469 343.675781 869.667969 355.234375 870.261719 C 358.503906 885.246094 357.503906 894.65625 386.453125 956.894531 C 385.953125 957.886719 385.367188 960.234375 381.753906 966.078125 C 380.019531 968.878906 378.902344 968.445312 377.378906 965.632812 C 374.242188 959.859375 373.3125 968.050781 373.617188 968.609375 C 376.167969 973.3125 375.917969 971.6875 373.472656 976.660156 C 369.15625 968.667969 343.601562 921.394531 332.457031 870.773438 Z M 332.457031 870.773438 " fill-opacity="1" fill-rule="evenodd"/><path fill="#0f3e20" d="M 332.148438 778.566406 C 333.71875 782.4375 334.421875 784.171875 333.40625 830.765625 C 333.277344 836.738281 323.441406 838.675781 318.320312 830.257812 C 308.296875 813.78125 300.113281 794.988281 300.460938 811.863281 C 300.5 813.714844 300.917969 834.203125 298.800781 834.953125 C 282.46875 840.714844 287.722656 829.246094 287.808594 811.863281 C 287.886719 796.628906 286.109375 778.363281 291.0625 777.988281 C 303.089844 777.085938 301.496094 781.203125 307.875 791.195312 C 313.136719 799.507812 319.855469 813.296875 320.707031 806.136719 C 322.164062 793.925781 318.644531 794.054688 320.273438 781.679688 C 321.277344 774.0625 324.566406 778.042969 332.148438 778.566406 Z M 332.148438 778.566406 " fill-opacity="1" fill-rule="evenodd"/><path fill="#8fba3f" d="M 1271.410156 985.5625 C 1272.519531 983.550781 1303.59375 927.171875 1299.171875 978.101562 C 1295.898438 1015.753906 1282.3125 1009.996094 1265.316406 1043.957031 C 1264.316406 1045.960938 1263.144531 1047.875 1262.109375 1049.863281 C 1261.234375 1051.542969 1255.953125 1062.335938 1255.421875 1063.421875 C 1253.992188 1060.625 1252.476562 1061.503906 1252.222656 1057.160156 C 1251.820312 1050.25 1267.269531 1032.6875 1266.21875 1027.234375 C 1262.785156 1009.472656 1265.664062 1002.023438 1271.410156 985.5625 Z M 1271.410156 985.5625 " fill-opacity="1" fill-rule="evenodd"/><path fill="#0f6326" d="M 379.886719 291.089844 C 399.738281 292.445312 418.523438 320.328125 385.058594 342.433594 C 380.617188 345.371094 353.4375 311.105469 355.632812 307.554688 C 362.910156 295.808594 377.628906 291.71875 379.886719 291.09375 Z M 379.886719 291.089844 " fill-opacity="1" fill-rule="evenodd"/><path fill="#0f6326" d="M 628.171875 262.035156 C 627.617188 264.992188 623.921875 284.769531 600.835938 287.914062 C 597.648438 288.347656 595.796875 287.871094 585.386719 250.820312 C 582.480469 240.464844 606.644531 238.132812 612.277344 239.292969 C 625.507812 242.019531 627.878906 259.832031 628.171875 262.035156 Z M 628.171875 262.035156 " fill-opacity="1" fill-rule="evenodd"/><path fill="#0f3e1b" d="M 430.867188 835.3125 C 428.902344 835.308594 406.71875 835.277344 406.429688 832.625 C 406.261719 831.082031 406.386719 785.714844 406.398438 781.636719 C 406.410156 777.800781 418.4375 777.6875 419.53125 777.679688 C 434.730469 777.539062 442.5 771.828125 441.75 787.214844 C 441.59375 790.433594 419.746094 788.230469 419.269531 792.945312 C 418.152344 803.921875 441.324219 792.777344 435.523438 808.476562 C 433.683594 813.453125 418.773438 803.644531 418.9375 819.429688 C 419 825.464844 443.667969 823.597656 444.265625 824.976562 C 448.84375 835.558594 442.25 834.523438 430.867188 835.3125 Z M 430.867188 835.3125 " fill-opacity="1" fill-rule="evenodd"/><path fill="#0e3e1d" d="M 209.359375 787.074219 C 225.125 765.320312 250.238281 783.007812 247.132812 786.980469 C 242.226562 793.253906 240.117188 791.097656 238.304688 790.757812 C 216.839844 782.761719 220.558594 795.355469 221.683594 796.183594 C 223.390625 797.441406 254.171875 803.808594 249.6875 821.367188 C 243.242188 846.601562 190.65625 833.957031 212.003906 819.859375 C 212.832031 819.3125 240.132812 830.351562 236.644531 817.378906 C 234.605469 809.78125 200.90625 814.4375 209.359375 787.074219 Z M 209.359375 787.074219 " fill-opacity="1" fill-rule="evenodd"/><path fill="#0f3e1b" d="M 1231.734375 791.605469 C 1222.699219 786.507812 1227.769531 782.742188 1237.554688 779.386719 C 1265.121094 769.929688 1269.589844 793.863281 1270.132812 796.765625 C 1265.710938 809.824219 1264.863281 809.78125 1245.839844 820.300781 C 1235.101562 826.242188 1269.289062 820.9375 1269.515625 827.003906 C 1270.039062 840.875 1262.957031 835.398438 1249.03125 835.480469 C 1247.140625 835.492188 1225.757812 835.621094 1225.53125 832.828125 C 1223.640625 809.453125 1273.179688 800.800781 1251.125 790.359375 C 1243.847656 781.121094 1241.65625 785.296875 1231.734375 791.605469 Z M 1231.734375 791.605469 " fill-opacity="1" fill-rule="evenodd"/><path fill="#0e3d20" d="M 1303.859375 797.746094 C 1315.449219 800.90625 1317.90625 799.007812 1322 810.214844 C 1333.019531 840.40625 1276.929688 839.410156 1283.355469 827.128906 C 1290.082031 814.269531 1300.390625 829.320312 1306.785156 822.273438 C 1319.78125 807.9375 1293.484375 812.117188 1286.878906 806.132812 C 1284.605469 804.078125 1284.839844 783.59375 1284.859375 781.625 C 1284.929688 775.648438 1318.578125 777.613281 1319.425781 779.414062 C 1325.414062 792.152344 1316.058594 789.601562 1301.9375 789.929688 C 1301.292969 789.945312 1288.09375 795.230469 1303.859375 797.746094 Z M 1303.859375 797.746094 " fill-opacity="1" fill-rule="evenodd"/><path fill="#0f6326" d="M 605.851562 201.585938 C 605.210938 214.191406 606.820312 220.105469 582.238281 228.648438 C 574.445312 231.359375 563.5625 187.511719 566.8125 186.273438 C 582.515625 180.285156 600.398438 172.476562 605.851562 201.585938 Z M 605.851562 201.585938 " fill-opacity="1" fill-rule="evenodd"/><path fill="#0f3e1b" d="M 1145.191406 779.570312 C 1173.890625 798 1135.195312 818.367188 1132.191406 819.945312 C 1114.863281 829.066406 1160.214844 813.910156 1155.269531 832.820312 C 1154.195312 836.925781 1111.109375 836.855469 1110.503906 832.738281 C 1107.515625 812.4375 1164.5 795.378906 1133.734375 789.820312 C 1132.460938 787.25 1131.429688 788.320312 1130.253906 785.949219 C 1130.136719 785.707031 1130.253906 785.949219 1133.605469 785.832031 C 1145.257812 786.585938 1142.515625 782.015625 1142.492188 781.628906 C 1142.386719 779.785156 1140.667969 778.085938 1140.898438 778.109375 C 1142.644531 778.285156 1144.054688 778.839844 1145.191406 779.570312 Z M 1145.191406 779.570312 " fill-opacity="1" fill-rule="evenodd"/><path fill="#0f3e20" d="M 368.421875 823.472656 C 365.789062 828.886719 363.1875 828.953125 366.085938 832.648438 L 364.59375 835.238281 C 360.453125 833.589844 360.671875 833.863281 356.695312 831.398438 C 357.347656 830.460938 357.929688 828.542969 358.597656 827.292969 C 360.0625 824.542969 360.703125 822.683594 354.621094 825.089844 L 352.648438 827.625 C 330.828125 796.253906 358.582031 771.789062 379.769531 778.128906 C 401.40625 784.609375 383.9375 793.9375 381.714844 793.058594 C 351.453125 781.070312 353.273438 815.933594 368.421875 823.472656 Z M 368.421875 823.472656 " fill-opacity="1" fill-rule="evenodd"/><path fill="#0f6326" d="M 200.335938 555.632812 C 231.851562 558.183594 253.691406 556.351562 248.554688 565.746094 C 247.496094 567.679688 235.582031 589.46875 232.726562 588.257812 C 229.171875 586.75 225.253906 582.183594 197.039062 561.789062 C 192.566406 558.554688 194.832031 556.554688 200.335938 555.632812 Z M 200.335938 555.632812 " fill-opacity="1" fill-rule="evenodd"/><path fill="#90ba3e" d="M 222.566406 1039.738281 C 235.363281 1037.914062 247.203125 1043.292969 253.003906 1044.90625 C 268.347656 1053.230469 266.847656 1054.988281 280.199219 1066.335938 C 280.386719 1066.5 280.199219 1066.335938 283.28125 1066.882812 C 282.703125 1068.390625 280.886719 1081.203125 269.59375 1073.558594 C 265.089844 1070.507812 256.167969 1075.644531 242.945312 1064.582031 C 241.003906 1062.957031 230.515625 1052.449219 222.566406 1039.738281 Z M 222.566406 1039.738281 " fill-opacity="1" fill-rule="evenodd"/><path fill="#0f6326" d="M 794.871094 1344.859375 C 795.617188 1351.148438 797.523438 1352.71875 793.871094 1353.175781 C 769.210938 1356.285156 768.011719 1354.238281 768.398438 1352.234375 C 769.007812 1349.058594 778.828125 1314.933594 778.914062 1314.585938 C 779.113281 1313.792969 781.921875 1302.710938 783.558594 1305.503906 C 785.210938 1308.332031 783.929688 1308.757812 794.871094 1344.859375 Z M 794.871094 1344.859375 " fill-opacity="1" fill-rule="evenodd"/><path fill="#0e3b1d" d="M 261.5625 798.636719 C 261.96875 784.230469 257.574219 776.910156 272.09375 778.085938 C 275.613281 778.371094 274.566406 799.101562 274.53125 811.863281 C 274.488281 828.023438 280.496094 836.664062 264.488281 835.191406 C 260 834.777344 261.582031 809.429688 261.5625 798.636719 Z M 261.5625 798.636719 " fill-opacity="1" fill-rule="evenodd"/><path fill="#f7dc31" d="M 1190.421875 790.207031 C 1190.753906 790.289062 1199.6875 788.253906 1201.972656 802.375 C 1203.242188 810.207031 1200.304688 817.800781 1199.386719 819.09375 C 1184.519531 840.125 1167.09375 793.910156 1190.421875 790.207031 Z M 1190.421875 790.207031 " fill-opacity="1" fill-rule="evenodd"/><path fill="#88b22c" d="M 713.785156 919.796875 C 736.066406 970.859375 733.269531 976.746094 729.488281 974.246094 C 728.777344 973.777344 729.15625 973.566406 722.273438 966.429688 C 718.859375 962.894531 715.589844 959.222656 712.179688 955.6875 C 707.378906 945.558594 697.101562 941.644531 698.777344 935.535156 C 702.417969 922.246094 704.871094 928.976562 704.386719 927.679688 C 703.992188 926.617188 710.417969 926.035156 709.820312 925.070312 C 709.539062 924.625 710.101562 924.695312 713.785156 919.796875 Z M 713.785156 919.796875 " fill-opacity="1" fill-rule="evenodd"/><path fill="#13661e" d="M 737.648438 511.023438 C 739.800781 508.730469 739.742188 508.9375 741.085938 505.878906 C 744.835938 497.347656 744.039062 512.617188 754.285156 514.058594 C 754.433594 520.476562 766.539062 523.941406 761.371094 530.234375 C 754.773438 538.277344 760.582031 540.660156 754.855469 549.21875 C 754.171875 550.238281 752.410156 550.132812 751.726562 551.148438 C 747.789062 530.792969 748.300781 530.648438 737.648438 511.023438 Z M 737.648438 511.023438 " fill-opacity="1" fill-rule="evenodd"/><path fill="#87b22c" d="M 818.820312 887.820312 C 805.929688 910.449219 805.363281 910.015625 796.726562 934.363281 C 794.152344 941.613281 792.441406 941.136719 791.683594 941.5 C 790.929688 941.863281 792.109375 936.933594 792.183594 936.542969 C 792.921875 932.683594 793.394531 932.988281 794.140625 929.09375 C 799.183594 910.847656 798.984375 911.058594 804.90625 893.082031 C 806.414062 892.242188 806.460938 895.433594 807.582031 892.769531 C 808.882812 889.6875 808.105469 889.832031 809.929688 887.011719 C 814.9375 879.277344 813.515625 880.328125 814.179688 879.898438 C 814.796875 879.5 823.195312 875.464844 818.820312 887.820312 Z M 818.820312 887.820312 " fill-opacity="1" fill-rule="evenodd"/><path fill="#0f3e20" d="M 368.421875 823.472656 C 376.617188 824.140625 376.671875 824.058594 383.652344 819.445312 C 387.753906 816.730469 395.082031 823.136719 395 825.089844 C 394.46875 837.808594 367.148438 835.457031 364.59375 835.238281 L 359.855469 830.144531 C 355.078125 826.699219 362.535156 826.007812 368.421875 823.472656 Z M 368.421875 823.472656 " fill-opacity="1" fill-rule="evenodd"/><path fill="#0f3e1b" d="M 1141.253906 778.109375 C 1136.109375 780.960938 1136.425781 781.589844 1133.632812 781.296875 C 1130.402344 780.960938 1132.519531 782.789062 1133.605469 785.832031 C 1130.253906 785.949219 1130.136719 785.707031 1130.253906 785.949219 C 1131.429688 788.320312 1132.460938 787.25 1133.734375 789.820312 C 1128.121094 790.558594 1128.195312 790.539062 1123.65625 793.992188 C 1121.460938 795.664062 1101.695312 789.035156 1122.328125 779.515625 C 1128.84375 776.511719 1139.746094 777.917969 1141.253906 778.109375 Z M 1141.253906 778.109375 " fill-opacity="1" fill-rule="evenodd"/><path fill="#fed23a" d="M 280.679688 776.34375 C 280.210938 774.988281 276.042969 762.945312 292.851562 763.234375 C 297.257812 763.308594 297.445312 763.964844 300.726562 760.941406 C 306.183594 755.917969 306.886719 764.578125 300.277344 768.171875 C 297.066406 769.914062 285.480469 769.230469 284.371094 774.5625 C 283.453125 778.96875 281.839844 776.433594 280.679688 776.34375 Z M 280.679688 776.34375 " fill-opacity="1" fill-rule="evenodd"/><path fill="#0f6326" d="M 798.296875 1110.433594 C 795.753906 1113.246094 796.058594 1113.246094 795.753906 1113.246094 C 784.757812 1113.210938 784.796875 1112.894531 774.761719 1116.847656 C 767.105469 1119.867188 767.167969 1111.6875 770.949219 1111.171875 C 790.316406 1108.519531 791.75 1103.132812 798.296875 1110.433594 Z M 798.296875 1110.433594 " fill-opacity="1" fill-rule="evenodd"/><path fill="#ffd627" d="M 719.585938 638.730469 C 721.914062 638.945312 721.621094 639.082031 723.859375 638.832031 C 736.464844 637.421875 739.398438 650.984375 738.585938 652.546875 C 734.328125 660.726562 721.003906 639.601562 719.585938 638.730469 Z M 719.585938 638.730469 " fill-opacity="1" fill-rule="evenodd"/><path fill="#8cb73a" d="M 352.875 607.5625 C 356.585938 613.894531 358.402344 612.667969 356.207031 619.578125 C 354.355469 625.410156 359.746094 649.226562 349.902344 643.855469 C 348.984375 643.355469 349.359375 641.332031 345.074219 628.304688 C 347.671875 621.390625 350.273438 614.476562 352.875 607.5625 Z M 352.875 607.5625 " fill-opacity="1" fill-rule="evenodd"/><path fill="#8fba3f" d="M 1288.316406 1004.484375 C 1282.851562 998.980469 1285.445312 997.128906 1286.210938 983.804688 C 1287.933594 953.796875 1294.648438 996.785156 1288.316406 1004.484375 Z M 1288.316406 1004.484375 " fill-opacity="1" fill-rule="evenodd"/><path fill="#18651e" d="M 781.855469 503.570312 L 783.941406 505.761719 C 784.074219 507.035156 783.402344 508.308594 783.535156 509.582031 C 783.539062 509.609375 790.957031 517.832031 784.496094 519.507812 C 780.144531 520.636719 780.730469 518.628906 775.246094 513.613281 Z M 781.855469 503.570312 " fill-opacity="1" fill-rule="evenodd"/><path fill="#1f690b" d="M 755.039062 755.121094 C 751.332031 751.335938 752.160156 751.042969 751.980469 745.746094 C 751.515625 732.105469 749.703125 731.234375 752.851562 729.089844 C 754.578125 727.910156 755.605469 729.71875 755.039062 755.121094 Z M 755.039062 755.121094 " fill-opacity="1" fill-rule="evenodd"/><path fill="#0f3e1b" d="M 1231.734375 791.605469 C 1238.453125 782.976562 1252.738281 780.480469 1251.125 790.359375 C 1243.917969 789.867188 1244.261719 790.8125 1237.992188 793.882812 C 1237.515625 794.117188 1237.539062 793.71875 1231.734375 791.605469 Z M 1231.734375 791.605469 " fill-opacity="1" fill-rule="evenodd"/><path fill="#0f6326" d="M 833.382812 80.199219 C 840.921875 81.003906 848.457031 81.804688 855.996094 82.609375 C 854.945312 82.914062 855.433594 91.03125 854.386719 91.335938 C 854.386719 91.335938 848.273438 93.5 847.367188 93.417969 C 848.820312 101.574219 841.566406 90.5 841.566406 90.5 L 839.5625 90.816406 L 836.667969 91.148438 L 832.769531 87.253906 Z M 833.382812 80.199219 " fill-opacity="1" fill-rule="evenodd"/><path fill="#0f3e1b" d="M 1141.253906 778.109375 C 1142.566406 778.597656 1143.386719 779.574219 1144.699219 780.0625 C 1146.5625 781.722656 1146.625 780.773438 1145.617188 781.542969 C 1145.433594 781.683594 1143.476562 781.820312 1144.449219 783.390625 C 1147.601562 788.472656 1138.6875 790.992188 1127.132812 789.355469 C 1126.050781 786.308594 1126.101562 780.765625 1129.328125 781.101562 C 1132.121094 781.394531 1133.566406 778.421875 1141.253906 778.109375 Z M 1141.253906 778.109375 " fill-opacity="1" fill-rule="evenodd"/><path fill="#91c15c" d="M 1162.859375 563.933594 C 1165.4375 568.964844 1168.015625 574 1170.59375 579.03125 C 1167.65625 579.105469 1167.09375 580.347656 1165.792969 577.601562 C 1162.480469 570.589844 1159.71875 570.734375 1162.859375 563.933594 Z M 1162.859375 563.933594 " fill-opacity="1" fill-rule="evenodd"/><path fill="#81b748" d="M 850.535156 1195.679688 C 862.839844 1194.417969 859.667969 1200.113281 859.007812 1200.53125 C 858.933594 1200.578125 846.902344 1204.753906 850.535156 1195.679688 Z M 850.535156 1195.679688 " fill-opacity="1" fill-rule="evenodd"/><path fill="#8bb61f" d="M 1110.851562 517.203125 C 1111.273438 513.421875 1111.054688 513.636719 1111.273438 513.421875 C 1116.570312 508.132812 1120.882812 525.695312 1114.464844 521.742188 C 1112.820312 520.726562 1112.496094 518.214844 1110.851562 517.203125 Z M 1110.851562 517.203125 " fill-opacity="1" fill-rule="evenodd"/><path fill="#0f3e20" d="M 352.648438 827.625 L 354.6875 824.070312 C 363.539062 820.566406 358.78125 828.410156 356.695312 831.398438 C 355.347656 830.140625 353.996094 828.882812 352.648438 827.625 Z M 352.648438 827.625 " fill-opacity="1" fill-rule="evenodd"/><path fill="#fcd33a" d="M 337.941406 787.164062 C 343.941406 787.230469 344.859375 788.863281 342.800781 794.652344 C 342.109375 796.601562 340.5 794.773438 339.800781 796.691406 C 338.769531 799.511719 341.007812 799.5625 339.949219 802.453125 C 338.664062 794.632812 339.476562 794.828125 337.941406 787.164062 Z M 337.941406 787.164062 " fill-opacity="1" fill-rule="evenodd"/><path fill="#0f3e20" d="M 327.785156 796.0625 C 323.472656 789.9375 324.460938 787.960938 324.792969 787.300781 C 334.609375 767.683594 327.960938 795.34375 327.785156 796.0625 Z M 327.785156 796.0625 " fill-opacity="1" fill-rule="evenodd"/><path fill="#89b433" d="M 990.257812 1137.128906 C 984.691406 1139.519531 985.765625 1140.945312 980.230469 1143.773438 C 973.867188 1147.023438 979.195312 1135.980469 990.257812 1137.128906 Z M 990.257812 1137.128906 " fill-opacity="1" fill-rule="evenodd"/><path fill="#fbd92f" d="M 769.101562 1070.945312 C 762.378906 1071.410156 762.296875 1070.777344 759.289062 1072.378906 L 757.246094 1070.722656 C 762.269531 1065.75 763.28125 1067.023438 769.101562 1070.945312 Z M 769.101562 1070.945312 " fill-opacity="1" fill-rule="evenodd"/><path fill="#0f6326" d="M 1247.351562 1093.359375 C 1247.578125 1087.941406 1247.527344 1088.085938 1247.648438 1087.902344 C 1249.972656 1084.46875 1255.40625 1095.398438 1247.351562 1093.359375 Z M 1247.351562 1093.359375 " fill-opacity="1" fill-rule="evenodd"/><path fill="#0f3e20" d="M 323.277344 821.289062 C 318.425781 818.550781 313.476562 820.164062 317.015625 815.730469 C 320.660156 811.167969 320.136719 816.417969 323.277344 821.289062 Z M 323.277344 821.289062 " fill-opacity="1" fill-rule="evenodd"/><path fill="#f3e01c" d="M 680.347656 575.597656 C 681.003906 575.589844 694.96875 575.355469 687.703125 579.167969 C 683.964844 581.132812 680.707031 576.148438 680.347656 575.597656 Z M 680.347656 575.597656 " fill-opacity="1" fill-rule="evenodd"/><path fill="#fed922" d="M 458.414062 845.445312 C 459.023438 845.21875 468.609375 841.617188 466.382812 847.074219 C 464.582031 851.484375 458.878906 845.902344 458.414062 845.445312 Z M 458.414062 845.445312 " fill-opacity="1" fill-rule="evenodd"/><path fill="#0f3e20" d="M 296.875 791.136719 C 292.445312 788.992188 292.21875 789.226562 292.09375 788.824219 C 291.972656 788.429688 300.027344 778.65625 296.875 791.136719 Z M 296.875 791.136719 " fill-opacity="1" fill-rule="evenodd"/><path fill="#0f3e20" d="M 217.429688 801.621094 C 217.847656 801.746094 227.757812 804.75 220.878906 805.804688 C 220.449219 805.871094 220.632812 805.503906 217.429688 801.621094 Z M 217.429688 801.621094 " fill-opacity="1" fill-rule="evenodd"/><path fill="#87b22c" d="M 1009.078125 706.214844 C 1011.496094 706.554688 1011.425781 706.257812 1012.828125 707.929688 L 1010.667969 709.578125 C 1009.804688 707.074219 1010.078125 706.960938 1009.078125 706.214844 Z M 1009.078125 706.214844 " fill-opacity="1" fill-rule="evenodd"/><path fill="#90b030" d="M 914.445312 1175.242188 C 914.226562 1175.164062 911.707031 1174.292969 911.707031 1174.292969 C 911.359375 1172.039062 912.355469 1174.519531 914.445312 1175.242188 Z M 914.445312 1175.242188 " fill-opacity="1" fill-rule="evenodd"/><path fill="#1c6c30" d="M 721.765625 677.355469 C 721.910156 677.234375 723.570312 675.84375 723.570312 675.84375 C 724.90625 676.886719 723.066406 676.269531 721.765625 677.355469 Z M 721.765625 677.355469 " fill-opacity="1" fill-rule="evenodd"/></svg>